<?xml version="1.0" encoding="UTF-8"?>
<svg id="Layer_2" data-name="Layer 2" xmlns="http://www.w3.org/2000/svg" viewBox="0 0 428.08 320.81">
  <defs>
    <style>
      .cls-1 {
        fill: #f37224;
        fill-rule: evenodd;
      }
    </style>
  </defs>
  <g id="Layer_1-2" data-name="Layer 1">
    <path class="cls-1" d="M2.13,168.4l19.1-100.83c4.02-20.75,11.92-36.9,23.71-48.47C57.91,6.37,74.54,0,94.82,0h140.46l-.71,48.82c-5.44-4.24-11.39-6.95-17.86-8.13-6.5-1.18-14.69-1.77-24.59-1.77h-49.18c-11.79,0-19.51,1.82-23.18,5.49-3.65,3.65-6.66,11.86-9.02,24.58l-19.46,99.76c-.71,4.25-1.06,7.9-1.06,10.96,0,7.08,2,11.74,6.01,13.98,4.01,2.24,10.98,3.36,20.88,3.36,62.13,0,125.14.33,187.68.33v-.12c9.15-.33,15.32-2.45,18.56-6.32,2.59-3.06,4.94-10.13,7.07-21.22l4.59-24.77c.71-4.01,1.06-7.31,1.06-9.91,0-4.01-1.13-6.9-3.36-8.66-2.24-1.77-6.21-2.66-11.85-2.66h-49.88l-12.08,62.74h-89.51l12.78-66.63c.94-4.01,1.42-8.62,1.42-13.8,0-8.01-1.53-15.09-4.61-21.21h194.58c17.45,0,30.31,2.11,38.56,6.35,10.62,5.43,15.94,15.21,15.94,29.36,0,4.48-.49,8.97-1.43,13.45l-10.26,53.42c-3.54,18.87-12.03,32.08-25.47,39.62-10.85,6.13-26.29,9.21-46.34,9.21-99.28,0-195.97-.27-295.03-.27-17,0-29.49-4.14-37.5-12.38-8.02-8.25-12.04-19.93-12.04-35.03,0-6.37.72-13.08,2.13-20.16h0ZM150.35,285.78l7.27-37.9h89.54l-7.31,37.9c-.95,4.01-1.41,8.62-1.41,13.8,0,8.02,1.53,15.1,4.61,21.23h-109.32c3.06-3.78,5.3-6.97,6.73-9.56,4.95-8.25,8.25-16.74,9.91-25.47Z"/>
  </g>
</svg>