<?xml version="1.0" encoding="UTF-8"?>
<svg id="Layer_2" data-name="Layer 2" xmlns="http://www.w3.org/2000/svg" viewBox="0 0 700 53.15">
  <defs>
    <style>
      .cls-1 {
        letter-spacing: -.01em;
      }

      .cls-2 {
        fill-rule: evenodd;
      }

      .cls-2, .cls-3, .cls-4 {
        fill: #f37224;
      }

      .cls-5, .cls-6 {
        fill: #231f20;
      }

      .cls-7 {
        letter-spacing: -.12em;
      }

      .cls-3 {
        font-family: Roboto-Light, Roboto;
        font-size: 9px;
        font-weight: 300;
      }

      .cls-8 {
        fill: #883d02;
        font-family: Square721BT-RomanExtended, 'Square721 Ex BT';
        font-size: 7.19px;
      }

      .cls-9 {
        letter-spacing: -.02em;
      }

      .cls-10 {
        letter-spacing: -.05em;
      }

      .cls-6 {
        font-family: Roboto-Bold, Roboto;
        font-size: 8.8px;
        font-weight: 700;
      }

      .cls-11 {
        letter-spacing: -.02em;
      }

      .cls-12 {
        letter-spacing: -.07em;
      }
    </style>
  </defs>
  <g id="Layer_1-2" data-name="Layer 1">
    <g>
      <g>
        <g>
          <path class="cls-4" d="M81.12,18.61h-7.59c-2.18-.13-3.11-1.93-2.77-5.39.34-3.46,1.68-5.25,4.04-5.37h7.39s-.26,2.63-.26,2.63h-6.53c-.49,0-.84.18-1.07.52-.52,1.33-.73,2.67-.62,4,.06.43.32.7.77.81l6.92.02-.28,2.79Z"/>
          <path class="cls-4" d="M82.37,17.46c.04-.93.48-1.43,1.35-1.51.92.04,1.41.5,1.46,1.39-.04.89-.53,1.34-1.48,1.37-.78-.09-1.23-.51-1.32-1.25Z"/>
          <path class="cls-4" d="M89.64,7.85h7.47c2.35.12,3.41,1.35,3.16,3.69-.24,2.34-1.48,3.58-3.71,3.72h-4.44l-.34,3.35h-3.22s1.07-10.76,1.07-10.76ZM92.45,12.41l3.99-.02c.59,0,.93-.28,1.02-.85.09-.57-.19-.9-.83-1h-3.99l-.19,1.87Z"/>
          <path class="cls-4" d="M100.78,17.46c.04-.93.48-1.43,1.35-1.51.92.04,1.41.5,1.46,1.39-.04.89-.53,1.34-1.48,1.37-.78-.09-1.22-.51-1.32-1.25Z"/>
          <path class="cls-4" d="M117.7,18.61h-7.59c-2.18-.13-3.11-1.93-2.77-5.39.34-3.46,1.69-5.25,4.04-5.37h7.39s-.26,2.63-.26,2.63h-6.53c-.49,0-.84.18-1.07.52-.52,1.33-.73,2.67-.62,4,.05.43.31.7.77.81l6.92.02-.28,2.79Z"/>
          <path class="cls-4" d="M126.45,18.75h-5.09c-2.27.01-3.21-1.81-2.83-5.47.35-3.7,1.73-5.56,4.14-5.58h4.18c2.51-.04,3.56,1.75,3.16,5.36-.16,3.74-1.35,5.64-3.55,5.68ZM121.5,15c.15.49.46.77.93.86h2.98c.5-.06.85-.29,1.06-.69.25-.28.42-.98.51-2.08.09-1.1.02-1.8-.22-2.1-.24-.32-.61-.5-1.11-.54h-2.29c-.66.05-1.13.37-1.41.96-.18.28-.33.89-.43,1.86-.1.96-.11,1.54-.01,1.74Z"/>
          <path class="cls-4" d="M129.7,18.65l1.08-10.82h7.31c2.11-.04,3.11,1.1,2.99,3.44l-.74,7.37h-2.87l.72-6.76c.13-.7-.13-1.02-.78-.98h-3.98l-.77,7.74h-2.98Z"/>
          <path class="cls-4" d="M151.5,10.66h-5.96c-.4,0-.72.02-.93.06-.22.04-.41.19-.57.47.05.35.19.54.41.59.23.04.58.06,1.05.06h2.91c1.17.07,1.99.41,2.46,1.01.47.61.64,1.46.54,2.55-.17,1.09-.56,1.9-1.15,2.42-.59.52-1.58.79-2.94.81h-6.51l.28-2.76h6.18c.53,0,.94-.02,1.22-.06.28-.04.47-.24.57-.62-.04-.3-.18-.48-.42-.54-.25-.06-.67-.09-1.25-.09h-2.82c-1.24,0-2.12-.3-2.63-.91-.52-.6-.72-1.44-.61-2.52.2-1.12.61-1.94,1.22-2.45.61-.51,1.58-.79,2.9-.85h6.35l-.28,2.8Z"/>
          <path class="cls-4" d="M162.91,7.85h7.46c2.25.37,3.33,1.59,3.21,3.66-.03,1.51-.63,2.71-1.8,3.59l1.51,3.54h-3.59l-1.46-3.39h-2.85l-.33,3.35h-3.23s1.09-10.76,1.09-10.76ZM165.72,12.41h3.96c.61,0,.95-.29,1.04-.87.09-.57-.18-.9-.83-1h-3.99l-.19,1.87Z"/>
          <path class="cls-4" d="M185.04,7.85l-1.08,10.75h-7.27c-2.1.04-3.08-1.09-2.97-3.42l.73-7.33h2.85l-.72,6.71c-.12.69.13,1.01.77.97h3.95l.77-7.68h2.95Z"/>
          <path class="cls-4" d="M195.24,18.61h-7.59c-2.18-.13-3.11-1.93-2.77-5.39.34-3.46,1.68-5.25,4.04-5.37h7.39s-.26,2.63-.26,2.63h-6.53c-.49,0-.85.18-1.07.52-.52,1.33-.73,2.67-.62,4,.06.43.31.7.77.81l6.92.02-.28,2.79Z"/>
          <path class="cls-4" d="M207.48,7.86h3.15l-1.07,10.77h-3.22l1.14-10.77Z"/>
          <path class="cls-4" d="M218.37,18.75h-5.09c-2.27.01-3.21-1.81-2.83-5.47.35-3.7,1.73-5.56,4.14-5.58h4.18c2.5-.04,3.56,1.75,3.16,5.36-.16,3.74-1.34,5.64-3.55,5.68ZM213.42,15c.15.49.46.77.93.86h2.97c.5-.06.86-.29,1.06-.69.25-.28.42-.98.51-2.08.09-1.1.02-1.8-.23-2.1-.23-.32-.6-.5-1.11-.54h-2.29c-.66.05-1.13.37-1.41.96-.19.28-.33.89-.43,1.86-.11.96-.11,1.54-.01,1.74Z"/>
          <path class="cls-4" d="M221.62,18.65l1.09-10.82h7.31c2.11-.04,3.11,1.1,2.99,3.44l-.74,7.37h-2.87l.72-6.76c.13-.7-.13-1.02-.77-.98h-3.98l-.77,7.74h-2.98Z"/>
          <polygon class="cls-4" points="199.2 18.61 202.45 18.61 203.28 10.88 206.61 10.88 206.91 7.84 197.28 7.84 196.97 10.87 200.03 10.85 199.2 18.61"/>
          <g>
            <path class="cls-5" d="M159.64,30.22h-5.37c-1.55-.09-2.2-1.36-1.96-3.81.24-2.45,1.19-3.72,2.86-3.8h5.23s-.18,1.86-.18,1.86h-4.62c-.34,0-.59.12-.76.36-.37.94-.52,1.88-.44,2.83.04.3.22.49.54.58h4.89s-.2,1.98-.2,1.98Z"/>
            <path class="cls-5" d="M165.83,30.31h-3.6c-1.6,0-2.27-1.28-2-3.87.25-2.62,1.22-3.93,2.93-3.95h2.95c1.77-.02,2.52,1.24,2.24,3.79-.12,2.64-.95,3.98-2.51,4.02ZM162.33,27.67c.1.35.32.55.66.61h2.11c.36-.04.61-.2.75-.49.17-.2.29-.69.36-1.47.07-.78.02-1.27-.16-1.49-.17-.22-.43-.35-.79-.38h-1.62c-.47.03-.8.26-1,.68-.13.2-.23.63-.31,1.31-.08.68-.08,1.09,0,1.23Z"/>
            <path class="cls-5" d="M168.17,30.25l.77-7.65,6.83.02c1.51-.04,2.22.76,2.14,2.41l-.52,5.22h-1.93l.46-4.62c.11-.57-.06-.85-.49-.84h-1.02s-.55,5.45-.55,5.45h-1.92s.54-5.46.54-5.46h-1.65s-.54,5.47-.54,5.47h-2.09Z"/>
            <path class="cls-5" d="M178.54,22.6h5.28c1.66.08,2.41.96,2.24,2.61-.17,1.66-1.05,2.53-2.63,2.63h-3.14l-.24,2.37h-2.28s.76-7.61.76-7.61ZM180.53,25.83h2.82c.42,0,.66-.21.72-.61.06-.41-.14-.64-.59-.71h-2.82l-.13,1.32Z"/>
            <path class="cls-5" d="M185.81,30.2l.52-5.18c.24-1.56,1.18-2.37,2.82-2.44h2.58c1.49.11,2.2.91,2.11,2.43l-.52,5.21h-2.02l.23-2.32-3.39-.02-.23,2.32h-2.1ZM188.42,25.17l-.09.81h3.38l.07-.64c.11-.59-.06-.91-.51-.98h-2.05c-.54.02-.81.29-.8.81Z"/>
            <path class="cls-5" d="M193.6,30.25l.77-7.65h5.17c1.49-.03,2.2.78,2.12,2.43l-.52,5.22h-2.03l.51-4.78c.09-.49-.09-.72-.55-.69h-2.81l-.55,5.48h-2.11Z"/>
            <path class="cls-5" d="M209.73,22.61l-.61,6.15c-.08.9-.65,1.42-1.69,1.56h-5.88s.18-2.03.18-2.03h4.59c.46,0,.7-.22.75-.66v-.05h-3c-1.49.04-2.2-.77-2.12-2.43l.26-2.54h2.02s-.18,2.08-.18,2.08c-.05.43.11.67.49.71h2.8l.3-2.8h2.1Z"/>
            <path class="cls-5" d="M210.97,28.75c.52.04.77.3.74.77l-.13,1.28c-.07.57-.37.87-.93.89-.44-.06-.66-.3-.66-.71l.14-1.37c.05-.5.33-.78.83-.87Z"/>
            <path class="cls-5" d="M213.44,22.61h2.23l-.75,7.61h-2.28l.8-7.61Z"/>
            <path class="cls-5" d="M215.66,30.25l.77-7.65h5.17c1.49-.03,2.2.78,2.12,2.43l-.52,5.22h-2.03l.51-4.78c.09-.49-.09-.72-.55-.69h-2.82l-.54,5.48h-2.1Z"/>
            <path class="cls-5" d="M231.88,30.22h-5.37c-1.54-.09-2.19-1.36-1.96-3.81.24-2.45,1.19-3.72,2.86-3.8h5.23s-.18,1.86-.18,1.86h-4.62c-.34,0-.6.12-.76.36-.37.94-.52,1.88-.44,2.83.04.3.22.49.54.58h4.89s-.2,1.98-.2,1.98Z"/>
            <path class="cls-5" d="M232.78,29.4c.02-.66.34-1.01.95-1.07.66.03,1,.35,1.03.99-.03.63-.37.95-1.05.96-.56-.06-.87-.36-.93-.88Z"/>
          </g>
          <polygon class="cls-5" points="149.16 28.28 71.31 28.28 71.31 26.09 149.16 26.09 149.16 28.28 149.16 28.28"/>
          <polygon class="cls-4" points="154.05 18.64 157.29 18.64 158.42 10.88 161.97 10.88 162.27 7.84 152.63 7.84 152.32 10.87 155.17 10.85 154.05 18.64"/>
        </g>
        <path class="cls-2" d="M.3,23.74l2.69-14.21c.57-2.93,1.68-5.2,3.35-6.83,1.83-1.8,4.17-2.69,7.03-2.69h19.8l-.1,6.88c-.77-.6-1.6-.98-2.52-1.15-.91-.17-2.07-.25-3.47-.25h-6.93c-1.66,0-2.75.26-3.27.77-.51.52-.94,1.67-1.27,3.47l-2.74,14.07c-.1.6-.15,1.11-.15,1.54,0,1,.28,1.66.85,1.97.57.32,1.55.47,2.94.47,8.76,0,17.64.04,26.46.04h0c1.29-.06,2.16-.36,2.61-.91.36-.43.7-1.43,1-2.99l.65-3.49c.1-.57.15-1.03.15-1.39,0-.57-.16-.97-.47-1.22-.32-.25-.87-.37-1.67-.37h-7.03l-1.7,8.84h-12.62l1.8-9.39c.13-.56.2-1.21.2-1.94,0-1.13-.22-2.13-.65-2.99h27.43c2.46,0,4.27.3,5.44.9,1.5.76,2.25,2.14,2.25,4.14,0,.63-.07,1.27-.2,1.9l-1.45,7.53c-.5,2.66-1.7,4.52-3.59,5.59-1.53.86-3.71,1.3-6.53,1.3-14,0-27.63-.04-41.59-.04-2.39,0-4.16-.58-5.29-1.74-1.13-1.17-1.7-2.81-1.7-4.94,0-.9.1-1.84.3-2.84H.3ZM21.19,40.29l1.03-5.34h12.62l-1.03,5.34c-.13.56-.2,1.21-.2,1.95,0,1.13.21,2.13.65,2.99h-15.41c.43-.53.75-.98.95-1.35.7-1.16,1.16-2.36,1.4-3.59Z"/>
      </g>
      <text class="cls-8" transform="translate(72.97 41.29)"><tspan class="cls-12" x="0" y="0">W</tspan><tspan class="cls-7" x="8.8" y="0">A</tspan><tspan x="14.87" y="0">TER - SEWER - STORM DRAIN</tspan></text>
      <text class="cls-6" transform="translate(196.61 50.77)"><tspan x="0" y="0">Est. 1966</tspan></text>
    </g>
    <text class="cls-3" transform="translate(441.08 37.63)"><tspan x="0" y="0">PO B</tspan><tspan class="cls-1" x="19.35" y="0">o</tspan><tspan x="24.3" y="0">x 1206 Ontario CA 91762</tspan></text>
    <text class="cls-3" transform="translate(443.47 49.49)"><tspan x="0" y="0">105 Loma Pl Upland CA 91786</tspan></text>
    <text class="cls-3" transform="translate(484.72 13.91)"><tspan x="0" y="0">(909) 981-1091 -</tspan><tspan class="cls-11" x="65.28" y="0"> </tspan><tspan class="cls-10" x="67.29" y="0">T</tspan><tspan x="72.23" y="0">el</tspan></text>
    <text class="cls-3" transform="translate(482.02 25.77)"><tspan x="0" y="0">(909) 981-6704 - </tspan><tspan class="cls-9" x="67.47" y="0">F</tspan><tspan x="72.38" y="0">ax</tspan></text>
  </g>
</svg>